<mxfile host="Electron" modified="2024-02-26T04:34:01.754Z" agent="Mozilla/5.0 (Windows NT 10.0; Win64; x64) AppleWebKit/537.36 (KHTML, like Gecko) draw.io/23.1.5 Chrome/120.0.6099.109 Electron/28.1.0 Safari/537.36" etag="6vgRaAm7DdGVwX160u8F" version="23.1.5" type="device">
  <diagram name="Page-1" id="XLxIXfoqBBUXvLyNZZXf">
    <mxGraphModel dx="1036" dy="654" grid="1" gridSize="10" guides="1" tooltips="1" connect="1" arrows="1" fold="1" page="1" pageScale="1" pageWidth="827" pageHeight="1169" math="0" shadow="0">
      <root>
        <mxCell id="0" />
        <mxCell id="1" parent="0" />
        <mxCell id="-8HWN1AUEytgHQln095R-4" value="ContainerÂ (single instance)" style="swimlane;sketch=1;curveFitting=1;jiggle=2;fontFamily=Architects Daughter;startSize=23;fontSource=https%3A%2F%2Ffonts.googleapis.com%2Fcss%3Ffamily%3DArchitects%2BDaughter;" parent="1" vertex="1">
          <mxGeometry y="520" width="830" height="300" as="geometry" />
        </mxCell>
        <mxCell id="-8HWN1AUEytgHQln095R-10" value="&lt;font data-font-src=&quot;https://fonts.googleapis.com/css?family=Architects+Daughter&quot; face=&quot;Architects Daughter&quot;&gt;&lt;b&gt;Services&lt;/b&gt;&lt;/font&gt;" style="swimlane;fontStyle=0;childLayout=stackLayout;horizontal=1;startSize=26;fillColor=none;horizontalStack=0;resizeParent=1;resizeParentMax=0;resizeLast=0;collapsible=1;marginBottom=0;html=1;sketch=1;curveFitting=1;jiggle=2;" parent="-8HWN1AUEytgHQln095R-4" vertex="1">
          <mxGeometry x="30" y="228" width="140" height="52" as="geometry" />
        </mxCell>
        <mxCell id="-8HWN1AUEytgHQln095R-11" value="&lt;font data-font-src=&quot;https://fonts.googleapis.com/css?family=Architects+Daughter&quot; face=&quot;Architects Daughter&quot;&gt;accounts&lt;/font&gt;" style="text;strokeColor=none;fillColor=none;align=left;verticalAlign=top;spacingLeft=4;spacingRight=4;overflow=hidden;rotatable=0;points=[[0,0.5],[1,0.5]];portConstraint=eastwest;whiteSpace=wrap;html=1;" parent="-8HWN1AUEytgHQln095R-10" vertex="1">
          <mxGeometry y="26" width="140" height="26" as="geometry" />
        </mxCell>
        <mxCell id="-8HWN1AUEytgHQln095R-20" value="&lt;font data-font-src=&quot;https://fonts.googleapis.com/css?family=Architects+Daughter&quot; face=&quot;Architects Daughter&quot;&gt;&lt;b&gt;API&lt;/b&gt;&lt;/font&gt;" style="swimlane;fontStyle=0;childLayout=stackLayout;horizontal=1;startSize=26;fillColor=none;horizontalStack=0;resizeParent=1;resizeParentMax=0;resizeLast=0;collapsible=1;marginBottom=0;html=1;sketch=1;curveFitting=1;jiggle=2;" parent="-8HWN1AUEytgHQln095R-4" vertex="1">
          <mxGeometry x="30" y="40" width="140" height="78" as="geometry" />
        </mxCell>
        <mxCell id="-8HWN1AUEytgHQln095R-22" value="&lt;font data-font-src=&quot;https://fonts.googleapis.com/css?family=Architects+Daughter&quot; face=&quot;Architects Daughter&quot;&gt;Controlers&lt;/font&gt;" style="text;strokeColor=none;fillColor=none;align=left;verticalAlign=top;spacingLeft=4;spacingRight=4;overflow=hidden;rotatable=0;points=[[0,0.5],[1,0.5]];portConstraint=eastwest;whiteSpace=wrap;html=1;" parent="-8HWN1AUEytgHQln095R-20" vertex="1">
          <mxGeometry y="26" width="140" height="26" as="geometry" />
        </mxCell>
        <mxCell id="-8HWN1AUEytgHQln095R-23" value="&lt;font data-font-src=&quot;https://fonts.googleapis.com/css?family=Architects+Daughter&quot; face=&quot;Architects Daughter&quot;&gt;Models&lt;/font&gt;" style="text;strokeColor=none;fillColor=none;align=left;verticalAlign=top;spacingLeft=4;spacingRight=4;overflow=hidden;rotatable=0;points=[[0,0.5],[1,0.5]];portConstraint=eastwest;whiteSpace=wrap;html=1;" parent="-8HWN1AUEytgHQln095R-20" vertex="1">
          <mxGeometry y="52" width="140" height="26" as="geometry" />
        </mxCell>
        <mxCell id="-8HWN1AUEytgHQln095R-24" value="" style="edgeStyle=orthogonalEdgeStyle;sourcePerimeterSpacing=0;targetPerimeterSpacing=0;startArrow=none;endArrow=none;rounded=0;targetPortConstraint=eastwest;sourcePortConstraint=northsouth;curved=0;rounded=0;" parent="-8HWN1AUEytgHQln095R-4" target="-8HWN1AUEytgHQln095R-26" edge="1">
          <mxGeometry relative="1" as="geometry">
            <mxPoint x="100" y="144" as="sourcePoint" />
          </mxGeometry>
        </mxCell>
        <mxCell id="-8HWN1AUEytgHQln095R-25" value="" style="edgeStyle=orthogonalEdgeStyle;sourcePerimeterSpacing=0;targetPerimeterSpacing=0;startArrow=none;endArrow=none;rounded=0;targetPortConstraint=eastwest;sourcePortConstraint=northsouth;curved=0;rounded=0;" parent="-8HWN1AUEytgHQln095R-4" edge="1">
          <mxGeometry relative="1" as="geometry">
            <mxPoint x="100" y="120" as="sourcePoint" />
            <mxPoint x="110" y="176.79999999999995" as="targetPoint" />
            <Array as="points">
              <mxPoint x="99" y="120" />
              <mxPoint x="100" y="120" />
              <mxPoint x="100" y="177" />
            </Array>
          </mxGeometry>
        </mxCell>
        <mxCell id="-8HWN1AUEytgHQln095R-26" value="&lt;font data-font-src=&quot;https://fonts.googleapis.com/css?family=Architects+Daughter&quot; face=&quot;Architects Daughter&quot;&gt;Libraries&lt;br&gt;(accounts)&lt;br&gt;&lt;/font&gt;" style="whiteSpace=wrap;html=1;align=center;verticalAlign=middle;treeFolding=1;treeMoving=1;" parent="-8HWN1AUEytgHQln095R-4" vertex="1">
          <mxGeometry x="10" y="153.8" width="80" height="46" as="geometry" />
        </mxCell>
        <mxCell id="-8HWN1AUEytgHQln095R-27" value="&lt;font data-font-src=&quot;https://fonts.googleapis.com/css?family=Architects+Daughter&quot; face=&quot;Architects Daughter&quot;&gt;DB Schema&lt;br&gt;(accounts)&lt;br&gt;&lt;/font&gt;" style="whiteSpace=wrap;html=1;align=center;verticalAlign=middle;treeFolding=1;treeMoving=1;" parent="-8HWN1AUEytgHQln095R-4" vertex="1">
          <mxGeometry x="110" y="153.8" width="80" height="46" as="geometry" />
        </mxCell>
        <mxCell id="nvzTRVgqq8Lr9meVyyNI-186" value="&lt;font data-font-src=&quot;https://fonts.googleapis.com/css?family=Architects+Daughter&quot; face=&quot;Architects Daughter&quot;&gt;&lt;b&gt;Services&lt;/b&gt;&lt;/font&gt;" style="swimlane;fontStyle=0;childLayout=stackLayout;horizontal=1;startSize=26;fillColor=none;horizontalStack=0;resizeParent=1;resizeParentMax=0;resizeLast=0;collapsible=1;marginBottom=0;html=1;sketch=1;curveFitting=1;jiggle=2;" parent="-8HWN1AUEytgHQln095R-4" vertex="1">
          <mxGeometry x="450" y="228" width="140" height="52" as="geometry" />
        </mxCell>
        <mxCell id="nvzTRVgqq8Lr9meVyyNI-187" value="&lt;font data-font-src=&quot;https://fonts.googleapis.com/css?family=Architects+Daughter&quot; face=&quot;Architects Daughter&quot;&gt;inventory&lt;/font&gt;" style="text;strokeColor=none;fillColor=none;align=left;verticalAlign=top;spacingLeft=4;spacingRight=4;overflow=hidden;rotatable=0;points=[[0,0.5],[1,0.5]];portConstraint=eastwest;whiteSpace=wrap;html=1;" parent="nvzTRVgqq8Lr9meVyyNI-186" vertex="1">
          <mxGeometry y="26" width="140" height="26" as="geometry" />
        </mxCell>
        <mxCell id="nvzTRVgqq8Lr9meVyyNI-188" value="&lt;font data-font-src=&quot;https://fonts.googleapis.com/css?family=Architects+Daughter&quot; face=&quot;Architects Daughter&quot;&gt;&lt;b&gt;API&lt;/b&gt;&lt;/font&gt;" style="swimlane;fontStyle=0;childLayout=stackLayout;horizontal=1;startSize=26;fillColor=none;horizontalStack=0;resizeParent=1;resizeParentMax=0;resizeLast=0;collapsible=1;marginBottom=0;html=1;sketch=1;curveFitting=1;jiggle=2;" parent="-8HWN1AUEytgHQln095R-4" vertex="1">
          <mxGeometry x="450" y="40" width="140" height="78" as="geometry" />
        </mxCell>
        <mxCell id="nvzTRVgqq8Lr9meVyyNI-189" value="&lt;font data-font-src=&quot;https://fonts.googleapis.com/css?family=Architects+Daughter&quot; face=&quot;Architects Daughter&quot;&gt;Controlers&lt;/font&gt;" style="text;strokeColor=none;fillColor=none;align=left;verticalAlign=top;spacingLeft=4;spacingRight=4;overflow=hidden;rotatable=0;points=[[0,0.5],[1,0.5]];portConstraint=eastwest;whiteSpace=wrap;html=1;" parent="nvzTRVgqq8Lr9meVyyNI-188" vertex="1">
          <mxGeometry y="26" width="140" height="26" as="geometry" />
        </mxCell>
        <mxCell id="nvzTRVgqq8Lr9meVyyNI-190" value="&lt;font data-font-src=&quot;https://fonts.googleapis.com/css?family=Architects+Daughter&quot; face=&quot;Architects Daughter&quot;&gt;Models&lt;/font&gt;" style="text;strokeColor=none;fillColor=none;align=left;verticalAlign=top;spacingLeft=4;spacingRight=4;overflow=hidden;rotatable=0;points=[[0,0.5],[1,0.5]];portConstraint=eastwest;whiteSpace=wrap;html=1;" parent="nvzTRVgqq8Lr9meVyyNI-188" vertex="1">
          <mxGeometry y="52" width="140" height="26" as="geometry" />
        </mxCell>
        <mxCell id="nvzTRVgqq8Lr9meVyyNI-191" value="" style="edgeStyle=orthogonalEdgeStyle;sourcePerimeterSpacing=0;targetPerimeterSpacing=0;startArrow=none;endArrow=none;rounded=0;targetPortConstraint=eastwest;sourcePortConstraint=northsouth;curved=0;rounded=0;exitX=0;exitY=0.5;exitDx=0;exitDy=0;" parent="-8HWN1AUEytgHQln095R-4" source="nvzTRVgqq8Lr9meVyyNI-194" target="nvzTRVgqq8Lr9meVyyNI-193" edge="1">
          <mxGeometry relative="1" as="geometry">
            <mxPoint x="560" y="144" as="sourcePoint" />
          </mxGeometry>
        </mxCell>
        <mxCell id="nvzTRVgqq8Lr9meVyyNI-192" value="" style="edgeStyle=orthogonalEdgeStyle;sourcePerimeterSpacing=0;targetPerimeterSpacing=0;startArrow=none;endArrow=none;rounded=0;targetPortConstraint=eastwest;sourcePortConstraint=northsouth;curved=0;rounded=0;" parent="-8HWN1AUEytgHQln095R-4" edge="1">
          <mxGeometry relative="1" as="geometry">
            <mxPoint x="520" y="120" as="sourcePoint" />
            <mxPoint x="520" y="177" as="targetPoint" />
            <Array as="points">
              <mxPoint x="520" y="120" />
            </Array>
          </mxGeometry>
        </mxCell>
        <mxCell id="nvzTRVgqq8Lr9meVyyNI-193" value="&lt;font data-font-src=&quot;https://fonts.googleapis.com/css?family=Architects+Daughter&quot; face=&quot;Architects Daughter&quot;&gt;Libraries&lt;br&gt;(inventory)&lt;br&gt;&lt;/font&gt;" style="whiteSpace=wrap;html=1;align=center;verticalAlign=middle;treeFolding=1;treeMoving=1;" parent="-8HWN1AUEytgHQln095R-4" vertex="1">
          <mxGeometry x="430" y="153.79999999999995" width="80" height="46" as="geometry" />
        </mxCell>
        <mxCell id="nvzTRVgqq8Lr9meVyyNI-194" value="&lt;font data-font-src=&quot;https://fonts.googleapis.com/css?family=Architects+Daughter&quot; face=&quot;Architects Daughter&quot;&gt;DB Schema&lt;br&gt;(inventory)&lt;br&gt;&lt;/font&gt;" style="whiteSpace=wrap;html=1;align=center;verticalAlign=middle;treeFolding=1;treeMoving=1;" parent="-8HWN1AUEytgHQln095R-4" vertex="1">
          <mxGeometry x="530" y="153.79999999999995" width="80" height="46" as="geometry" />
        </mxCell>
        <mxCell id="frxxd2hKdIzcyvhG0PGe-9" value="&lt;font data-font-src=&quot;https://fonts.googleapis.com/css?family=Architects+Daughter&quot; face=&quot;Architects Daughter&quot;&gt;&lt;b&gt;Services&lt;/b&gt;&lt;/font&gt;" style="swimlane;fontStyle=0;childLayout=stackLayout;horizontal=1;startSize=26;fillColor=none;horizontalStack=0;resizeParent=1;resizeParentMax=0;resizeLast=0;collapsible=1;marginBottom=0;html=1;sketch=1;curveFitting=1;jiggle=2;" parent="-8HWN1AUEytgHQln095R-4" vertex="1">
          <mxGeometry x="650" y="228" width="140" height="52" as="geometry" />
        </mxCell>
        <mxCell id="frxxd2hKdIzcyvhG0PGe-10" value="&lt;font data-font-src=&quot;https://fonts.googleapis.com/css?family=Architects+Daughter&quot; face=&quot;Architects Daughter&quot;&gt;orders&lt;/font&gt;" style="text;strokeColor=none;fillColor=none;align=left;verticalAlign=top;spacingLeft=4;spacingRight=4;overflow=hidden;rotatable=0;points=[[0,0.5],[1,0.5]];portConstraint=eastwest;whiteSpace=wrap;html=1;" parent="frxxd2hKdIzcyvhG0PGe-9" vertex="1">
          <mxGeometry y="26" width="140" height="26" as="geometry" />
        </mxCell>
        <mxCell id="frxxd2hKdIzcyvhG0PGe-11" value="&lt;font data-font-src=&quot;https://fonts.googleapis.com/css?family=Architects+Daughter&quot; face=&quot;Architects Daughter&quot;&gt;&lt;b&gt;API&lt;/b&gt;&lt;/font&gt;" style="swimlane;fontStyle=0;childLayout=stackLayout;horizontal=1;startSize=26;fillColor=none;horizontalStack=0;resizeParent=1;resizeParentMax=0;resizeLast=0;collapsible=1;marginBottom=0;html=1;sketch=1;curveFitting=1;jiggle=2;" parent="-8HWN1AUEytgHQln095R-4" vertex="1">
          <mxGeometry x="650" y="40" width="140" height="78" as="geometry" />
        </mxCell>
        <mxCell id="frxxd2hKdIzcyvhG0PGe-12" value="&lt;font data-font-src=&quot;https://fonts.googleapis.com/css?family=Architects+Daughter&quot; face=&quot;Architects Daughter&quot;&gt;Controlers&lt;/font&gt;" style="text;strokeColor=none;fillColor=none;align=left;verticalAlign=top;spacingLeft=4;spacingRight=4;overflow=hidden;rotatable=0;points=[[0,0.5],[1,0.5]];portConstraint=eastwest;whiteSpace=wrap;html=1;" parent="frxxd2hKdIzcyvhG0PGe-11" vertex="1">
          <mxGeometry y="26" width="140" height="26" as="geometry" />
        </mxCell>
        <mxCell id="frxxd2hKdIzcyvhG0PGe-13" value="&lt;font data-font-src=&quot;https://fonts.googleapis.com/css?family=Architects+Daughter&quot; face=&quot;Architects Daughter&quot;&gt;Models&lt;/font&gt;" style="text;strokeColor=none;fillColor=none;align=left;verticalAlign=top;spacingLeft=4;spacingRight=4;overflow=hidden;rotatable=0;points=[[0,0.5],[1,0.5]];portConstraint=eastwest;whiteSpace=wrap;html=1;" parent="frxxd2hKdIzcyvhG0PGe-11" vertex="1">
          <mxGeometry y="52" width="140" height="26" as="geometry" />
        </mxCell>
        <mxCell id="frxxd2hKdIzcyvhG0PGe-14" value="" style="edgeStyle=orthogonalEdgeStyle;sourcePerimeterSpacing=0;targetPerimeterSpacing=0;startArrow=none;endArrow=none;rounded=0;targetPortConstraint=eastwest;sourcePortConstraint=northsouth;curved=0;rounded=0;" parent="-8HWN1AUEytgHQln095R-4" edge="1">
          <mxGeometry relative="1" as="geometry">
            <mxPoint x="720" y="120" as="sourcePoint" />
            <mxPoint x="730" y="176.79999999999995" as="targetPoint" />
            <Array as="points">
              <mxPoint x="719" y="120" />
              <mxPoint x="720" y="120" />
              <mxPoint x="720" y="177" />
            </Array>
          </mxGeometry>
        </mxCell>
        <mxCell id="frxxd2hKdIzcyvhG0PGe-15" value="&lt;font data-font-src=&quot;https://fonts.googleapis.com/css?family=Architects+Daughter&quot; face=&quot;Architects Daughter&quot;&gt;Libraries&lt;br&gt;(orders)&lt;br&gt;&lt;/font&gt;" style="whiteSpace=wrap;html=1;align=center;verticalAlign=middle;treeFolding=1;treeMoving=1;" parent="-8HWN1AUEytgHQln095R-4" vertex="1">
          <mxGeometry x="630" y="153.79999999999995" width="80" height="46" as="geometry" />
        </mxCell>
        <mxCell id="frxxd2hKdIzcyvhG0PGe-16" value="&lt;font data-font-src=&quot;https://fonts.googleapis.com/css?family=Architects+Daughter&quot; face=&quot;Architects Daughter&quot;&gt;DB Schema&lt;br&gt;(orders)&lt;br&gt;&lt;/font&gt;" style="whiteSpace=wrap;html=1;align=center;verticalAlign=middle;treeFolding=1;treeMoving=1;" parent="-8HWN1AUEytgHQln095R-4" vertex="1">
          <mxGeometry x="730" y="153.79999999999995" width="80" height="46" as="geometry" />
        </mxCell>
        <mxCell id="frxxd2hKdIzcyvhG0PGe-31" value="" style="endArrow=classic;startArrow=classic;html=1;rounded=0;sketch=1;hachureGap=4;jiggle=2;curveFitting=1;entryX=0.5;entryY=1;entryDx=0;entryDy=0;" parent="-8HWN1AUEytgHQln095R-4" edge="1" target="ffGbGJ9E8TQJU0ase0sL-18">
          <mxGeometry width="50" height="50" relative="1" as="geometry">
            <mxPoint x="300" y="40" as="sourcePoint" />
            <mxPoint x="430" y="-70" as="targetPoint" />
          </mxGeometry>
        </mxCell>
        <mxCell id="frxxd2hKdIzcyvhG0PGe-30" value="" style="endArrow=classic;startArrow=classic;html=1;rounded=0;sketch=1;hachureGap=4;jiggle=2;curveFitting=1;entryX=0.449;entryY=1.11;entryDx=0;entryDy=0;entryPerimeter=0;" parent="-8HWN1AUEytgHQln095R-4" edge="1" target="ffGbGJ9E8TQJU0ase0sL-21">
          <mxGeometry width="50" height="50" relative="1" as="geometry">
            <mxPoint x="520" y="40" as="sourcePoint" />
            <mxPoint x="430" y="-70" as="targetPoint" />
          </mxGeometry>
        </mxCell>
        <mxCell id="frxxd2hKdIzcyvhG0PGe-29" value="" style="endArrow=classic;startArrow=classic;html=1;rounded=0;sketch=1;hachureGap=4;jiggle=2;curveFitting=1;entryX=0.467;entryY=1.07;entryDx=0;entryDy=0;entryPerimeter=0;" parent="-8HWN1AUEytgHQln095R-4" target="ffGbGJ9E8TQJU0ase0sL-23" edge="1">
          <mxGeometry width="50" height="50" relative="1" as="geometry">
            <mxPoint x="720" y="40" as="sourcePoint" />
            <mxPoint x="433" y="-70" as="targetPoint" />
          </mxGeometry>
        </mxCell>
        <mxCell id="-8HWN1AUEytgHQln095R-3" value="&lt;font data-font-src=&quot;https://fonts.googleapis.com/css?family=Architects+Daughter&quot; face=&quot;Architects Daughter&quot;&gt;&lt;b&gt;DB&lt;/b&gt;&lt;br&gt;accounts&lt;br&gt;&lt;/font&gt;" style="shape=datastore;whiteSpace=wrap;html=1;sketch=1;curveFitting=1;jiggle=2;" parent="1" vertex="1">
          <mxGeometry x="70" y="860" width="60" height="60" as="geometry" />
        </mxCell>
        <mxCell id="nvzTRVgqq8Lr9meVyyNI-119" value="&lt;font data-font-src=&quot;https://fonts.googleapis.com/css?family=Architects+Daughter&quot; face=&quot;Architects Daughter&quot;&gt;&lt;b&gt;DB&lt;/b&gt;&lt;br&gt;products&lt;br&gt;&lt;/font&gt;" style="shape=datastore;whiteSpace=wrap;html=1;sketch=1;curveFitting=1;jiggle=2;" parent="1" vertex="1">
          <mxGeometry x="270" y="860" width="60" height="60" as="geometry" />
        </mxCell>
        <mxCell id="nvzTRVgqq8Lr9meVyyNI-131" value="&lt;font face=&quot;Architects Daughter&quot;&gt;&lt;b&gt;DB&lt;/b&gt;&lt;br&gt;inventory&lt;br&gt;&lt;/font&gt;" style="shape=datastore;whiteSpace=wrap;html=1;sketch=1;curveFitting=1;jiggle=2;" parent="1" vertex="1">
          <mxGeometry x="490" y="860" width="60" height="60" as="geometry" />
        </mxCell>
        <mxCell id="nvzTRVgqq8Lr9meVyyNI-177" value="&lt;font data-font-src=&quot;https://fonts.googleapis.com/css?family=Architects+Daughter&quot; face=&quot;Architects Daughter&quot;&gt;&lt;b&gt;Services&lt;/b&gt;&lt;/font&gt;" style="swimlane;fontStyle=0;childLayout=stackLayout;horizontal=1;startSize=26;fillColor=none;horizontalStack=0;resizeParent=1;resizeParentMax=0;resizeLast=0;collapsible=1;marginBottom=0;html=1;sketch=1;curveFitting=1;jiggle=2;" parent="1" vertex="1">
          <mxGeometry x="230" y="748" width="140" height="52" as="geometry" />
        </mxCell>
        <mxCell id="nvzTRVgqq8Lr9meVyyNI-178" value="&lt;font data-font-src=&quot;https://fonts.googleapis.com/css?family=Architects+Daughter&quot; face=&quot;Architects Daughter&quot;&gt;products&lt;/font&gt;" style="text;strokeColor=none;fillColor=none;align=left;verticalAlign=top;spacingLeft=4;spacingRight=4;overflow=hidden;rotatable=0;points=[[0,0.5],[1,0.5]];portConstraint=eastwest;whiteSpace=wrap;html=1;" parent="nvzTRVgqq8Lr9meVyyNI-177" vertex="1">
          <mxGeometry y="26" width="140" height="26" as="geometry" />
        </mxCell>
        <mxCell id="nvzTRVgqq8Lr9meVyyNI-179" value="&lt;font data-font-src=&quot;https://fonts.googleapis.com/css?family=Architects+Daughter&quot; face=&quot;Architects Daughter&quot;&gt;&lt;b&gt;API&lt;/b&gt;&lt;/font&gt;" style="swimlane;fontStyle=0;childLayout=stackLayout;horizontal=1;startSize=26;fillColor=none;horizontalStack=0;resizeParent=1;resizeParentMax=0;resizeLast=0;collapsible=1;marginBottom=0;html=1;sketch=1;curveFitting=1;jiggle=2;" parent="1" vertex="1">
          <mxGeometry x="230" y="560" width="140" height="78" as="geometry" />
        </mxCell>
        <mxCell id="nvzTRVgqq8Lr9meVyyNI-180" value="&lt;font data-font-src=&quot;https://fonts.googleapis.com/css?family=Architects+Daughter&quot; face=&quot;Architects Daughter&quot;&gt;Controlers&lt;/font&gt;" style="text;strokeColor=none;fillColor=none;align=left;verticalAlign=top;spacingLeft=4;spacingRight=4;overflow=hidden;rotatable=0;points=[[0,0.5],[1,0.5]];portConstraint=eastwest;whiteSpace=wrap;html=1;" parent="nvzTRVgqq8Lr9meVyyNI-179" vertex="1">
          <mxGeometry y="26" width="140" height="26" as="geometry" />
        </mxCell>
        <mxCell id="nvzTRVgqq8Lr9meVyyNI-181" value="&lt;font data-font-src=&quot;https://fonts.googleapis.com/css?family=Architects+Daughter&quot; face=&quot;Architects Daughter&quot;&gt;Models&lt;/font&gt;" style="text;strokeColor=none;fillColor=none;align=left;verticalAlign=top;spacingLeft=4;spacingRight=4;overflow=hidden;rotatable=0;points=[[0,0.5],[1,0.5]];portConstraint=eastwest;whiteSpace=wrap;html=1;" parent="nvzTRVgqq8Lr9meVyyNI-179" vertex="1">
          <mxGeometry y="52" width="140" height="26" as="geometry" />
        </mxCell>
        <mxCell id="nvzTRVgqq8Lr9meVyyNI-182" value="" style="edgeStyle=orthogonalEdgeStyle;sourcePerimeterSpacing=0;targetPerimeterSpacing=0;startArrow=none;endArrow=none;rounded=0;targetPortConstraint=eastwest;sourcePortConstraint=northsouth;curved=0;rounded=0;exitX=0;exitY=0.5;exitDx=0;exitDy=0;" parent="1" source="nvzTRVgqq8Lr9meVyyNI-185" target="nvzTRVgqq8Lr9meVyyNI-184" edge="1">
          <mxGeometry relative="1" as="geometry">
            <mxPoint x="380" y="664" as="sourcePoint" />
          </mxGeometry>
        </mxCell>
        <mxCell id="nvzTRVgqq8Lr9meVyyNI-183" value="" style="edgeStyle=orthogonalEdgeStyle;sourcePerimeterSpacing=0;targetPerimeterSpacing=0;startArrow=none;endArrow=none;rounded=0;targetPortConstraint=eastwest;sourcePortConstraint=northsouth;curved=0;rounded=0;" parent="1" edge="1">
          <mxGeometry relative="1" as="geometry">
            <mxPoint x="300" y="640" as="sourcePoint" />
            <mxPoint x="300" y="697" as="targetPoint" />
            <Array as="points">
              <mxPoint x="299" y="640" />
              <mxPoint x="300" y="640" />
              <mxPoint x="300" y="697" />
            </Array>
          </mxGeometry>
        </mxCell>
        <mxCell id="nvzTRVgqq8Lr9meVyyNI-184" value="&lt;font data-font-src=&quot;https://fonts.googleapis.com/css?family=Architects+Daughter&quot; face=&quot;Architects Daughter&quot;&gt;Libraries&lt;br&gt;(products)&lt;br&gt;&lt;/font&gt;" style="whiteSpace=wrap;html=1;align=center;verticalAlign=middle;treeFolding=1;treeMoving=1;" parent="1" vertex="1">
          <mxGeometry x="210" y="673.8" width="80" height="46" as="geometry" />
        </mxCell>
        <mxCell id="nvzTRVgqq8Lr9meVyyNI-185" value="&lt;font data-font-src=&quot;https://fonts.googleapis.com/css?family=Architects+Daughter&quot; face=&quot;Architects Daughter&quot;&gt;DB Schema&lt;br&gt;(products)&lt;br&gt;&lt;/font&gt;" style="whiteSpace=wrap;html=1;align=center;verticalAlign=middle;treeFolding=1;treeMoving=1;" parent="1" vertex="1">
          <mxGeometry x="310" y="673.8" width="80" height="46" as="geometry" />
        </mxCell>
        <mxCell id="frxxd2hKdIzcyvhG0PGe-25" value="" style="endArrow=classic;startArrow=classic;html=1;rounded=0;sketch=1;hachureGap=4;jiggle=2;curveFitting=1;entryX=0.509;entryY=1.208;entryDx=0;entryDy=0;entryPerimeter=0;" parent="1" target="frxxd2hKdIzcyvhG0PGe-10" edge="1">
          <mxGeometry width="50" height="50" relative="1" as="geometry">
            <mxPoint x="720" y="860" as="sourcePoint" />
            <mxPoint x="770" y="810" as="targetPoint" />
          </mxGeometry>
        </mxCell>
        <mxCell id="frxxd2hKdIzcyvhG0PGe-26" value="" style="endArrow=classic;startArrow=classic;html=1;rounded=0;sketch=1;hachureGap=4;jiggle=2;curveFitting=1;" parent="1" edge="1">
          <mxGeometry width="50" height="50" relative="1" as="geometry">
            <mxPoint x="520" y="860" as="sourcePoint" />
            <mxPoint x="520" y="800" as="targetPoint" />
          </mxGeometry>
        </mxCell>
        <mxCell id="frxxd2hKdIzcyvhG0PGe-27" value="" style="endArrow=classic;startArrow=classic;html=1;rounded=0;sketch=1;hachureGap=4;jiggle=2;curveFitting=1;entryX=0.486;entryY=0.992;entryDx=0;entryDy=0;entryPerimeter=0;" parent="1" target="nvzTRVgqq8Lr9meVyyNI-178" edge="1">
          <mxGeometry width="50" height="50" relative="1" as="geometry">
            <mxPoint x="300" y="860" as="sourcePoint" />
            <mxPoint x="300" y="810" as="targetPoint" />
          </mxGeometry>
        </mxCell>
        <mxCell id="frxxd2hKdIzcyvhG0PGe-28" value="" style="endArrow=classic;startArrow=classic;html=1;rounded=0;sketch=1;hachureGap=4;jiggle=2;curveFitting=1;exitX=0.5;exitY=0;exitDx=0;exitDy=0;entryX=0.514;entryY=0.992;entryDx=0;entryDy=0;entryPerimeter=0;" parent="1" source="-8HWN1AUEytgHQln095R-3" target="-8HWN1AUEytgHQln095R-11" edge="1">
          <mxGeometry width="50" height="50" relative="1" as="geometry">
            <mxPoint x="130" y="860" as="sourcePoint" />
            <mxPoint x="100" y="810" as="targetPoint" />
          </mxGeometry>
        </mxCell>
        <mxCell id="frxxd2hKdIzcyvhG0PGe-32" value="" style="endArrow=classic;startArrow=classic;html=1;rounded=0;sketch=1;hachureGap=4;jiggle=2;curveFitting=1;entryX=0.513;entryY=1.17;entryDx=0;entryDy=0;entryPerimeter=0;" parent="1" target="ffGbGJ9E8TQJU0ase0sL-17" edge="1">
          <mxGeometry width="50" height="50" relative="1" as="geometry">
            <mxPoint x="100" y="560" as="sourcePoint" />
            <mxPoint x="433" y="450" as="targetPoint" />
          </mxGeometry>
        </mxCell>
        <mxCell id="frxxd2hKdIzcyvhG0PGe-33" value="&lt;font face=&quot;Architects Daughter&quot;&gt;&lt;b&gt;DB&lt;/b&gt;&lt;br&gt;orders&lt;br&gt;&lt;/font&gt;" style="shape=datastore;whiteSpace=wrap;html=1;sketch=1;curveFitting=1;jiggle=2;" parent="1" vertex="1">
          <mxGeometry x="690" y="860" width="60" height="60" as="geometry" />
        </mxCell>
        <mxCell id="ffGbGJ9E8TQJU0ase0sL-13" value="Container (single instance)" style="swimlane;sketch=1;hachureGap=4;jiggle=2;curveFitting=1;fontFamily=Architects Daughter;fontSource=https%3A%2F%2Ffonts.googleapis.com%2Fcss%3Ffamily%3DArchitects%2BDaughter;fontSize=12;startSize=23;" vertex="1" parent="1">
          <mxGeometry x="270" y="250" width="326" height="70" as="geometry" />
        </mxCell>
        <mxCell id="ffGbGJ9E8TQJU0ase0sL-14" value="&lt;font style=&quot;font-size: 12px;&quot;&gt;&lt;b&gt;Frontend (e.g., React &amp;amp; React Native)&lt;/b&gt;&lt;/font&gt;" style="text;html=1;align=center;verticalAlign=middle;resizable=0;points=[];autosize=1;strokeColor=none;fillColor=none;fontSize=20;fontFamily=Architects Daughter;" vertex="1" parent="ffGbGJ9E8TQJU0ase0sL-13">
          <mxGeometry x="10" y="20" width="230" height="40" as="geometry" />
        </mxCell>
        <mxCell id="ffGbGJ9E8TQJU0ase0sL-15" value="&lt;font data-font-src=&quot;https://fonts.googleapis.com/css?family=Architects+Daughter&quot; face=&quot;Architects Daughter&quot;&gt;API Gatway&lt;/font&gt;" style="swimlane;childLayout=stackLayout;resizeParent=1;resizeParentMax=0;startSize=20;html=1;" vertex="1" parent="1">
          <mxGeometry x="190" y="360" width="480" height="90" as="geometry" />
        </mxCell>
        <mxCell id="ffGbGJ9E8TQJU0ase0sL-16" value="&lt;font data-font-src=&quot;https://fonts.googleapis.com/css?family=Architects+Daughter&quot; face=&quot;Architects Daughter&quot;&gt;accounts&lt;/font&gt;" style="swimlane;startSize=20;html=1;" vertex="1" parent="ffGbGJ9E8TQJU0ase0sL-15">
          <mxGeometry y="20" width="120" height="70" as="geometry" />
        </mxCell>
        <mxCell id="ffGbGJ9E8TQJU0ase0sL-17" value="&lt;font data-font-src=&quot;https://fonts.googleapis.com/css?family=Architects+Daughter&quot; face=&quot;Architects Daughter&quot;&gt;accounts&lt;br&gt;HTTPRoute&lt;/font&gt;" style="text;html=1;align=center;verticalAlign=middle;resizable=0;points=[];autosize=1;strokeColor=none;fillColor=none;" vertex="1" parent="ffGbGJ9E8TQJU0ase0sL-16">
          <mxGeometry x="15" y="25" width="90" height="40" as="geometry" />
        </mxCell>
        <mxCell id="ffGbGJ9E8TQJU0ase0sL-18" value="&lt;font data-font-src=&quot;https://fonts.googleapis.com/css?family=Architects+Daughter&quot; face=&quot;Architects Daughter&quot;&gt;products&lt;/font&gt;" style="swimlane;startSize=20;html=1;" vertex="1" parent="ffGbGJ9E8TQJU0ase0sL-15">
          <mxGeometry x="120" y="20" width="120" height="70" as="geometry" />
        </mxCell>
        <mxCell id="ffGbGJ9E8TQJU0ase0sL-19" value="&lt;font data-font-src=&quot;https://fonts.googleapis.com/css?family=Architects+Daughter&quot; face=&quot;Architects Daughter&quot;&gt;products&lt;br&gt;HTTPRoute&lt;/font&gt;" style="text;html=1;align=center;verticalAlign=middle;resizable=0;points=[];autosize=1;strokeColor=none;fillColor=none;" vertex="1" parent="ffGbGJ9E8TQJU0ase0sL-18">
          <mxGeometry x="15" y="25" width="90" height="40" as="geometry" />
        </mxCell>
        <mxCell id="ffGbGJ9E8TQJU0ase0sL-20" value="&lt;font data-font-src=&quot;https://fonts.googleapis.com/css?family=Architects+Daughter&quot; face=&quot;Architects Daughter&quot;&gt;orders&lt;/font&gt;" style="swimlane;startSize=20;html=1;" vertex="1" parent="ffGbGJ9E8TQJU0ase0sL-15">
          <mxGeometry x="240" y="20" width="120" height="70" as="geometry" />
        </mxCell>
        <mxCell id="ffGbGJ9E8TQJU0ase0sL-21" value="&lt;font face=&quot;Architects Daughter&quot;&gt;inventory&lt;br style=&quot;border-color: var(--border-color);&quot;&gt;HTTPRoute&lt;/font&gt;" style="text;html=1;align=center;verticalAlign=middle;resizable=0;points=[];autosize=1;strokeColor=none;fillColor=none;" vertex="1" parent="ffGbGJ9E8TQJU0ase0sL-20">
          <mxGeometry x="20" y="25" width="90" height="40" as="geometry" />
        </mxCell>
        <mxCell id="ffGbGJ9E8TQJU0ase0sL-22" value="&lt;font data-font-src=&quot;https://fonts.googleapis.com/css?family=Architects+Daughter&quot; face=&quot;Architects Daughter&quot;&gt;orders&lt;/font&gt;" style="swimlane;startSize=20;html=1;" vertex="1" parent="ffGbGJ9E8TQJU0ase0sL-15">
          <mxGeometry x="360" y="20" width="120" height="70" as="geometry" />
        </mxCell>
        <mxCell id="ffGbGJ9E8TQJU0ase0sL-23" value="&lt;font face=&quot;Architects Daughter&quot;&gt;orders&lt;br style=&quot;border-color: var(--border-color);&quot;&gt;HTTPRoute&lt;/font&gt;" style="text;html=1;align=center;verticalAlign=middle;resizable=0;points=[];autosize=1;strokeColor=none;fillColor=none;" vertex="1" parent="ffGbGJ9E8TQJU0ase0sL-22">
          <mxGeometry x="20" y="25" width="90" height="40" as="geometry" />
        </mxCell>
        <mxCell id="ffGbGJ9E8TQJU0ase0sL-24" value="" style="endArrow=classic;startArrow=classic;html=1;rounded=0;sketch=1;hachureGap=4;jiggle=2;curveFitting=1;exitX=0.5;exitY=0;exitDx=0;exitDy=0;" edge="1" parent="1" source="ffGbGJ9E8TQJU0ase0sL-15">
          <mxGeometry width="50" height="50" relative="1" as="geometry">
            <mxPoint x="420" y="370" as="sourcePoint" />
            <mxPoint x="430" y="320" as="targetPoint" />
          </mxGeometry>
        </mxCell>
      </root>
    </mxGraphModel>
  </diagram>
</mxfile>
